<?xml version="1.0" encoding="utf-8"?>
<!-- Generator: Adobe Illustrator 26.3.1, SVG Export Plug-In . SVG Version: 6.00 Build 0)  -->
<svg version="1.1" id="Capa_1" xmlns="http://www.w3.org/2000/svg" xmlns:xlink="http://www.w3.org/1999/xlink" x="0px" y="0px"
	 viewBox="0 0 487.04 210.68" style="enable-background:new 0 0 487.04 210.68;" xml:space="preserve">
<style type="text/css">
	.st0{fill:#FFFFFF;}
	.st1{fill:url(#SVGID_1_);}
	.st2{fill:url(#SVGID_00000093171476496314543010000002542688879654982302_);}
	.st3{fill:url(#SVGID_00000158715484385015221480000014139987880691455402_);}
	.st4{fill:url(#SVGID_00000036932429878087041260000017361360380169269392_);}
</style>
<g>
	<g>
		<path class="st0" d="M245.4,83.38c0-17.32,13.26-29.83,31.07-29.83c9.45,0,17.57,3.4,22.95,9.69l-6.96,6.55
			c-4.22-4.56-9.45-6.79-15.49-6.79c-12.02,0-20.72,8.45-20.72,20.38s8.7,20.38,20.72,20.38c6.05,0,11.27-2.24,15.49-6.88l6.96,6.63
			c-5.39,6.3-13.51,9.69-23.04,9.69C258.66,113.21,245.4,100.69,245.4,83.38z"/>
		<path class="st0" d="M307.39,54.62c0-3.48,2.81-6.21,6.63-6.21c3.81,0,6.63,2.57,6.63,5.97c0,3.65-2.74,6.46-6.63,6.46
			C310.2,60.84,307.39,58.11,307.39,54.62z M308.8,68.13h10.36v44.25H308.8V68.13z"/>
		<path class="st0" d="M374.17,68.13l-18.98,44.25h-10.69l-18.97-44.25h10.77l13.76,32.81l14.17-32.81H374.17z"/>
		<path class="st0" d="M379.23,54.62c0-3.48,2.82-6.21,6.63-6.21c3.81,0,6.63,2.57,6.63,5.97c0,3.65-2.73,6.46-6.63,6.46
			C382.05,60.84,379.23,58.11,379.23,54.62z M380.64,68.13H391v44.25h-10.36V68.13z"/>
		<path class="st0" d="M404.59,50.9h10.36v61.48h-10.36V50.9z"/>
		<path class="st0" d="M245.98,178.14l1.91-3.15c3.98,4.14,11.35,7.29,19.14,7.29c11.6,0,16.74-5.05,16.74-11.35
			c0-17.4-36.21-6.96-36.21-28.34c0-8.2,6.3-15.41,20.55-15.41c6.38,0,13.01,1.99,17.49,5.22l-1.58,3.4
			c-4.81-3.31-10.69-4.89-15.91-4.89c-11.27,0-16.32,5.22-16.32,11.6c0,17.4,36.21,7.13,36.21,28.17c0,8.2-6.55,15.33-20.88,15.33
			C258.5,186.01,250.21,182.78,245.98,178.14z"/>
		<path class="st0" d="M344.1,163.97c0,13.01-9.2,21.96-21.38,21.96c-7.62,0-14.09-3.73-17.57-10.19v25.94h-4.14v-59.33h3.98v10.19
			c3.4-6.63,9.94-10.52,17.73-10.52C334.9,142.01,344.1,151.04,344.1,163.97z M339.95,163.97c0-10.86-7.54-18.23-17.49-18.23
			s-17.4,7.37-17.4,18.23c0,10.85,7.45,18.23,17.4,18.23S339.95,174.82,339.95,163.97z"/>
		<path class="st0" d="M388.02,158.17v27.43h-3.98v-7.7c-2.74,4.97-8.04,8.04-15.58,8.04c-9.7,0-15.58-4.97-15.58-12.35
			c0-6.55,4.14-12.1,16.16-12.1h14.83V158c0-8.04-4.39-12.35-12.84-12.35c-5.97,0-11.35,2.24-14.92,5.47l-2.07-2.98
			c4.31-3.81,10.61-6.13,17.32-6.13C382.05,142.01,388.02,147.48,388.02,158.17z M383.87,172.83v-8.12h-14.75
			c-8.95,0-12.1,3.73-12.1,8.7c0,5.63,4.39,9.12,12.02,9.12C376.33,182.53,381.39,179.05,383.87,172.83z"/>
		<path class="st0" d="M400.45,163.97c0-12.93,9.2-21.96,21.88-21.96c6.88,0,12.84,2.65,16.4,7.95l-3.06,2.24
			c-3.15-4.39-7.95-6.46-13.34-6.46c-10.19,0-17.65,7.29-17.65,18.23c0,10.94,7.46,18.23,17.65,18.23c5.38,0,10.19-2.07,13.34-6.47
			l3.06,2.24c-3.56,5.22-9.53,7.95-16.4,7.95C409.64,185.93,400.45,176.81,400.45,163.97z"/>
		<path class="st0" d="M486.96,164.96h-37.2c0.41,10.27,7.95,17.24,18.31,17.24c5.47,0,10.52-1.99,13.84-6.05l2.4,2.74
			c-3.81,4.64-9.78,7.04-16.32,7.04c-13.09,0-22.29-9.11-22.29-21.96c0-12.84,8.86-21.96,20.71-21.96
			c11.85,0,20.63,8.95,20.63,21.79C487.04,164.13,486.96,164.55,486.96,164.96z M449.83,161.73h33.14
			c-0.58-9.36-7.37-16.08-16.57-16.08C457.21,145.66,450.5,152.28,449.83,161.73z"/>
	</g>
	<linearGradient id="SVGID_1_" gradientUnits="userSpaceOnUse" x1="137.7343" y1="139.9608" x2="240.2287" y2="139.9608">
		<stop  offset="0" style="stop-color:#FFFFFF"/>
		<stop  offset="0.9225" style="stop-color:#FFFFFF;stop-opacity:0.7"/>
	</linearGradient>
	<path class="st1" d="M219.25,182.93c0,0-20.33-12.85-17.06-33.08c9.74-15.58,15.36-33.99,15.3-53.72
		c-0.01-4.61-0.34-9.15-0.96-13.6l-33.58,0.1c0.91,4.39,1.39,8.94,1.41,13.6c0.12,37.45-30.15,67.9-67.6,68.02l0.1,33.13
		c22.98-0.07,44.14-7.83,61.07-20.82C197.09,188.73,219.25,182.93,219.25,182.93z"/>
	
		<linearGradient id="SVGID_00000144313639814803875070000009636297032829383335_" gradientUnits="userSpaceOnUse" x1="89.8902" y1="51.9843" x2="205.1368" y2="51.9843">
		<stop  offset="0.2691" style="stop-color:#FFFFFF;stop-opacity:0.7"/>
		<stop  offset="0.8629" style="stop-color:#FFFFFF"/>
	</linearGradient>
	<path style="fill:url(#SVGID_00000144313639814803875070000009636297032829383335_);" d="M184.6,43.42
		c11.46-1.06,20.21-10.91,19.73-22.55c-0.5-12.01-10.64-21.35-22.65-20.85c-11.42,0.47-20.4,9.67-20.83,20.9
		c-16.35-11.11-36.1-17.55-57.36-17.4c-4.61,0.03-9.15,0.38-13.6,1.01l0.24,33.58c4.39-0.93,8.93-1.43,13.59-1.46
		c37.45-0.26,68.02,29.88,68.28,67.32l33.13-0.23C204.98,81.06,197.35,60.18,184.6,43.42z"/>
	
		<linearGradient id="SVGID_00000116918538696984617650000015634544023376111268_" gradientUnits="userSpaceOnUse" x1="9.094947e-13" y1="71.7489" x2="110.1533" y2="71.7489">
		<stop  offset="0.2691" style="stop-color:#FFFFFF;stop-opacity:0.7"/>
		<stop  offset="0.8629" style="stop-color:#FFFFFF"/>
	</linearGradient>
	<path style="fill:url(#SVGID_00000116918538696984617650000015634544023376111268_);" d="M110.15,46.93L109.7,13.8
		C84.17,14.15,61,23.97,43.44,39.84c-0.97-11.63-10.96-20.5-22.71-19.93C8.71,20.49-0.55,30.69,0.03,42.7
		C0.6,54.71,10.81,63.97,22.81,63.4c0.48-0.02,0.96-0.09,1.43-0.14c-9.18,15.46-14.36,33.56-14.09,52.86
		c0.06,4.61,0.44,9.15,1.1,13.59l33.58-0.46c-0.96-4.38-1.49-8.92-1.55-13.58C42.77,78.21,72.71,47.44,110.15,46.93z"/>
	
		<linearGradient id="SVGID_00000133497598778968809120000010646196644738352275_" gradientUnits="userSpaceOnUse" x1="79.4824" y1="210.6755" x2="79.4824" y2="108.4446">
		<stop  offset="0.2691" style="stop-color:#FFFFFF;stop-opacity:0.7"/>
		<stop  offset="0.8629" style="stop-color:#FFFFFF"/>
	</linearGradient>
	<path style="fill:url(#SVGID_00000133497598778968809120000010646196644738352275_);" d="M123.01,176.67
		c-37.45-0.16-67.68-30.64-67.52-68.09l-33.13-0.14c-0.09,22.16,6.98,42.68,19.02,59.38c-9.67,2.46-16.7,11.35-16.38,21.74
		c0.36,12.02,10.4,21.46,22.41,21.1c10.27-0.31,18.64-7.7,20.64-17.34c15.76,10.33,34.57,16.39,54.82,16.48
		c4.61,0.02,9.15-0.28,13.61-0.86l0.14-33.58C132.22,176.24,127.66,176.69,123.01,176.67z"/>
</g>
</svg>
