<?xml version="1.0" encoding="utf-8"?>
<!-- Generator: Adobe Illustrator 26.3.1, SVG Export Plug-In . SVG Version: 6.00 Build 0)  -->
<svg version="1.1" id="Capa_1" xmlns="http://www.w3.org/2000/svg" xmlns:xlink="http://www.w3.org/1999/xlink" x="0px" y="0px"
	 viewBox="0 0 378.64 163.78" style="enable-background:new 0 0 378.64 163.78;" xml:space="preserve">
<style type="text/css">
	.st0{fill:url(#SVGID_1_);}
	.st1{fill:url(#SVGID_00000029016835564226092360000007726340495442042291_);}
	.st2{fill:url(#SVGID_00000103248363899113051760000002249768033533117363_);}
	.st3{fill:url(#SVGID_00000072282327053158483700000002977413340800765849_);}
	.st4{fill:#5D7BD4;}
</style>
<g>
	<g>
		<linearGradient id="SVGID_1_" gradientUnits="userSpaceOnUse" x1="90.7687" y1="108.8087" x2="170.4502" y2="108.8087">
			<stop  offset="0" style="stop-color:#A284E4"/>
			<stop  offset="1" style="stop-color:#EAC1FB"/>
		</linearGradient>
		<path class="st0" d="M170.45,142.21c0,0-15.81-9.99-13.27-25.71c7.57-12.11,11.94-26.42,11.89-41.76
			c-0.01-3.59-0.27-7.12-0.74-10.57l-26.11,0.08c0.71,3.41,1.08,6.95,1.1,10.57c0.09,29.11-23.44,52.79-52.55,52.88l0.08,25.76
			c17.87-0.06,34.31-6.09,47.47-16.19C153.22,146.72,170.45,142.21,170.45,142.21z"/>
		
			<linearGradient id="SVGID_00000038403944775771711670000000586380012696076416_" gradientUnits="userSpaceOnUse" x1="69.8827" y1="40.4138" x2="159.478" y2="40.4138">
			<stop  offset="0" style="stop-color:#5D7BD4"/>
			<stop  offset="1" style="stop-color:#75DACC"/>
		</linearGradient>
		<path style="fill:url(#SVGID_00000038403944775771711670000000586380012696076416_);" d="M143.51,33.75
			c8.91-0.83,15.71-8.49,15.34-17.53c-0.39-9.34-8.27-16.6-17.61-16.21c-8.88,0.37-15.86,7.52-16.2,16.25
			C112.34,7.62,96.98,2.61,80.45,2.73c-3.59,0.03-7.11,0.3-10.57,0.79l0.18,26.11c3.41-0.72,6.95-1.11,10.57-1.14
			c29.11-0.21,52.88,23.23,53.08,52.34l25.76-0.18C159.35,63.01,153.42,46.78,143.51,33.75z"/>
		
			<linearGradient id="SVGID_00000064348348474662864140000002089138448298054841_" gradientUnits="userSpaceOnUse" x1="0" y1="55.7792" x2="85.6357" y2="55.7792">
			<stop  offset="0" style="stop-color:#5375ED"/>
			<stop  offset="1" style="stop-color:#73ADD2"/>
		</linearGradient>
		<path style="fill:url(#SVGID_00000064348348474662864140000002089138448298054841_);" d="M85.64,36.48l-0.35-25.76
			C65.43,11,47.42,18.63,33.77,30.97c-0.75-9.04-8.52-15.94-17.66-15.5C6.78,15.93-0.43,23.86,0.02,33.19
			c0.45,9.34,8.38,16.54,17.72,16.09c0.38-0.02,0.74-0.07,1.11-0.11C11.71,61.19,7.69,75.27,7.89,90.27
			c0.05,3.59,0.34,7.11,0.86,10.56l26.11-0.36c-0.74-3.41-1.16-6.94-1.21-10.56C33.25,60.8,56.53,36.88,85.64,36.48z"/>
		
			<linearGradient id="SVGID_00000067195634246231206160000006691441825688860301_" gradientUnits="userSpaceOnUse" x1="17.3757" y1="124.0456" x2="106.2071" y2="124.0456">
			<stop  offset="0" style="stop-color:#AFB2E6"/>
			<stop  offset="1" style="stop-color:#EAC1FB"/>
		</linearGradient>
		<path style="fill:url(#SVGID_00000067195634246231206160000006691441825688860301_);" d="M95.63,137.35
			c-29.11-0.12-52.61-23.82-52.49-52.93l-25.76-0.11c-0.07,17.23,5.43,33.18,14.79,46.16c-7.52,1.91-12.98,8.82-12.74,16.9
			c0.28,9.34,8.08,16.69,17.43,16.41c7.99-0.24,14.49-5.98,16.05-13.48c12.25,8.03,26.88,12.74,42.62,12.81
			c3.59,0.02,7.12-0.22,10.58-0.67l0.11-26.11C102.79,137.01,99.25,137.36,95.63,137.35z"/>
	</g>
	<g>
		<g>
			<path class="st4" d="M190.78,64.82c0-13.46,10.31-23.19,24.16-23.19c7.35,0,13.66,2.64,17.85,7.54l-5.41,5.09
				c-3.28-3.54-7.34-5.28-12.05-5.28c-9.34,0-16.11,6.57-16.11,15.85s6.76,15.85,16.11,15.85c4.7,0,8.76-1.74,12.05-5.35l5.41,5.15
				c-4.19,4.9-10.5,7.54-17.91,7.54C201.09,88.01,190.78,78.28,190.78,64.82z"/>
			<path class="st4" d="M238.97,42.47c0-2.7,2.19-4.83,5.15-4.83c2.96,0,5.15,2,5.15,4.64c0,2.83-2.13,5.02-5.15,5.02
				C241.16,47.3,238.97,45.17,238.97,42.47z M240.07,52.97h8.05v34.4h-8.05V52.97z"/>
			<path class="st4" d="M290.89,52.97l-14.75,34.4h-8.31l-14.75-34.4h8.37l10.7,25.51l11.01-25.51H290.89z"/>
			<path class="st4" d="M294.82,42.47c0-2.7,2.19-4.83,5.15-4.83c2.97,0,5.15,2,5.15,4.64c0,2.83-2.12,5.02-5.15,5.02
				C297.01,47.3,294.82,45.17,294.82,42.47z M295.92,52.97h8.05v34.4h-8.05V52.97z"/>
			<path class="st4" d="M314.54,39.57h8.05v47.8h-8.05V39.57z"/>
			<path class="st4" d="M191.23,138.49l1.48-2.45c3.09,3.22,8.82,5.67,14.88,5.67c9.02,0,13.01-3.93,13.01-8.82
				c0-13.53-28.15-5.41-28.15-22.03c0-6.38,4.9-11.98,15.98-11.98c4.96,0,10.11,1.55,13.59,4.06l-1.22,2.64
				c-3.74-2.58-8.31-3.8-12.37-3.8c-8.76,0-12.69,4.06-12.69,9.02c0,13.53,28.15,5.54,28.15,21.9c0,6.38-5.09,11.92-16.23,11.92
				C200.96,144.61,194.52,142.1,191.23,138.49z"/>
			<path class="st4" d="M267.51,127.47c0,10.11-7.15,17.07-16.62,17.07c-5.93,0-10.95-2.9-13.66-7.92v20.16h-3.22v-46.12h3.09v7.92
				c2.64-5.15,7.73-8.18,13.79-8.18C260.36,110.4,267.51,117.42,267.51,127.47z M264.29,127.47c0-8.44-5.86-14.17-13.59-14.17
				c-7.73,0-13.53,5.73-13.53,14.17c0,8.44,5.8,14.17,13.53,14.17C258.42,141.65,264.29,135.91,264.29,127.47z"/>
			<path class="st4" d="M301.65,122.96v21.32h-3.09v-5.99c-2.13,3.87-6.25,6.25-12.11,6.25c-7.54,0-12.11-3.87-12.11-9.6
				c0-5.09,3.22-9.41,12.56-9.41h11.53v-2.7c0-6.25-3.41-9.6-9.98-9.6c-4.64,0-8.83,1.74-11.6,4.25l-1.61-2.32
				c3.35-2.96,8.25-4.77,13.46-4.77C297.01,110.4,301.65,114.65,301.65,122.96z M298.43,134.37v-6.31h-11.46
				c-6.96,0-9.41,2.9-9.41,6.76c0,4.38,3.42,7.09,9.34,7.09C292.57,141.9,296.5,139.2,298.43,134.37z"/>
			<path class="st4" d="M311.32,127.47c0-10.05,7.15-17.07,17.01-17.07c5.35,0,9.98,2.06,12.75,6.18l-2.38,1.74
				c-2.45-3.41-6.18-5.02-10.37-5.02c-7.92,0-13.72,5.67-13.72,14.17s5.8,14.17,13.72,14.17c4.19,0,7.92-1.61,10.37-5.03l2.38,1.74
				c-2.77,4.06-7.41,6.18-12.75,6.18C318.47,144.54,311.32,137.46,311.32,127.47z"/>
			<path class="st4" d="M378.57,128.25h-28.92c0.32,7.99,6.18,13.4,14.24,13.4c4.25,0,8.18-1.55,10.76-4.7l1.87,2.13
				c-2.96,3.61-7.6,5.47-12.69,5.47c-10.18,0-17.33-7.09-17.33-17.07c0-9.99,6.89-17.07,16.1-17.07c9.21,0,16.04,6.96,16.04,16.94
				C378.64,127.6,378.57,127.92,378.57,128.25z M349.71,125.73h25.77c-0.45-7.28-5.73-12.5-12.88-12.5
				C355.44,113.24,350.23,118.39,349.71,125.73z"/>
		</g>
	</g>
</g>
</svg>
